<svg xmlns="http://www.w3.org/2000/svg" width="960" height="430" viewBox="0 0 960 430">
<rect width="100%" height="100%" fill="white"/>
<text x="82" y="30" font-family="Arial" font-size="20" font-weight="700">Mean rentals by weekday and hour</text>
<text x="70" y="81.9" font-family="Arial" font-size="12" text-anchor="end" fill="#334155">Mon</text>
<rect x="82.0" y="55.0" width="35.3" height="45.7" fill="rgb(221,233,229)" stroke="white"/>
<rect x="117.3" y="55.0" width="35.3" height="45.7" fill="rgb(223,238,236)" stroke="white"/>
<rect x="152.7" y="55.0" width="35.3" height="45.7" fill="rgb(223,240,238)" stroke="white"/>
<rect x="188.0" y="55.0" width="35.3" height="45.7" fill="rgb(223,241,240)" stroke="white"/>
<rect x="223.3" y="55.0" width="35.3" height="45.7" fill="rgb(223,241,240)" stroke="white"/>
<rect x="258.7" y="55.0" width="35.3" height="45.7" fill="rgb(222,236,234)" stroke="white"/>
<rect x="294.0" y="55.0" width="35.3" height="45.7" fill="rgb(218,217,209)" stroke="white"/>
<rect x="329.3" y="55.0" width="35.3" height="45.7" fill="rgb(206,168,148)" stroke="white"/>
<rect x="364.7" y="55.0" width="35.3" height="45.7" fill="rgb(194,119,86)" stroke="white"/>
<rect x="400.0" y="55.0" width="35.3" height="45.7" fill="rgb(208,177,159)" stroke="white"/>
<rect x="435.3" y="55.0" width="35.3" height="45.7" fill="rgb(214,201,189)" stroke="white"/>
<rect x="470.7" y="55.0" width="35.3" height="45.7" fill="rgb(212,194,180)" stroke="white"/>
<rect x="506.0" y="55.0" width="35.3" height="45.7" fill="rgb(209,181,163)" stroke="white"/>
<rect x="541.3" y="55.0" width="35.3" height="45.7" fill="rgb(209,181,164)" stroke="white"/>
<rect x="576.7" y="55.0" width="35.3" height="45.7" fill="rgb(210,185,169)" stroke="white"/>
<rect x="612.0" y="55.0" width="35.3" height="45.7" fill="rgb(209,182,165)" stroke="white"/>
<rect x="647.3" y="55.0" width="35.3" height="45.7" fill="rgb(203,157,134)" stroke="white"/>
<rect x="682.7" y="55.0" width="35.3" height="45.7" fill="rgb(188,92,51)" stroke="white"/>
<rect x="718.0" y="55.0" width="35.3" height="45.7" fill="rgb(189,98,59)" stroke="white"/>
<rect x="753.3" y="55.0" width="35.3" height="45.7" fill="rgb(199,139,111)" stroke="white"/>
<rect x="788.7" y="55.0" width="35.3" height="45.7" fill="rgb(206,170,150)" stroke="white"/>
<rect x="824.0" y="55.0" width="35.3" height="45.7" fill="rgb(211,190,176)" stroke="white"/>
<rect x="859.3" y="55.0" width="35.3" height="45.7" fill="rgb(215,208,198)" stroke="white"/>
<rect x="894.7" y="55.0" width="35.3" height="45.7" fill="rgb(219,223,217)" stroke="white"/>
<text x="70" y="127.6" font-family="Arial" font-size="12" text-anchor="end" fill="#334155">Tue</text>
<rect x="82.0" y="100.7" width="35.3" height="45.7" fill="rgb(222,234,232)" stroke="white"/>
<rect x="117.3" y="100.7" width="35.3" height="45.7" fill="rgb(223,239,237)" stroke="white"/>
<rect x="152.7" y="100.7" width="35.3" height="45.7" fill="rgb(223,241,239)" stroke="white"/>
<rect x="188.0" y="100.7" width="35.3" height="45.7" fill="rgb(224,242,241)" stroke="white"/>
<rect x="223.3" y="100.7" width="35.3" height="45.7" fill="rgb(223,241,240)" stroke="white"/>
<rect x="258.7" y="100.7" width="35.3" height="45.7" fill="rgb(222,235,233)" stroke="white"/>
<rect x="294.0" y="100.7" width="35.3" height="45.7" fill="rgb(216,211,202)" stroke="white"/>
<rect x="329.3" y="100.7" width="35.3" height="45.7" fill="rgb(202,153,128)" stroke="white"/>
<rect x="364.7" y="100.7" width="35.3" height="45.7" fill="rgb(190,101,63)" stroke="white"/>
<rect x="400.0" y="100.7" width="35.3" height="45.7" fill="rgb(207,172,152)" stroke="white"/>
<rect x="435.3" y="100.7" width="35.3" height="45.7" fill="rgb(214,204,193)" stroke="white"/>
<rect x="470.7" y="100.7" width="35.3" height="45.7" fill="rgb(213,199,187)" stroke="white"/>
<rect x="506.0" y="100.7" width="35.3" height="45.7" fill="rgb(211,188,173)" stroke="white"/>
<rect x="541.3" y="100.7" width="35.3" height="45.7" fill="rgb(211,188,173)" stroke="white"/>
<rect x="576.7" y="100.7" width="35.3" height="45.7" fill="rgb(212,192,178)" stroke="white"/>
<rect x="612.0" y="100.7" width="35.3" height="45.7" fill="rgb(210,187,171)" stroke="white"/>
<rect x="647.3" y="100.7" width="35.3" height="45.7" fill="rgb(203,157,133)" stroke="white"/>
<rect x="682.7" y="100.7" width="35.3" height="45.7" fill="rgb(185,80,36)" stroke="white"/>
<rect x="718.0" y="100.7" width="35.3" height="45.7" fill="rgb(186,88,46)" stroke="white"/>
<rect x="753.3" y="100.7" width="35.3" height="45.7" fill="rgb(198,137,108)" stroke="white"/>
<rect x="788.7" y="100.7" width="35.3" height="45.7" fill="rgb(206,167,146)" stroke="white"/>
<rect x="824.0" y="100.7" width="35.3" height="45.7" fill="rgb(210,187,171)" stroke="white"/>
<rect x="859.3" y="100.7" width="35.3" height="45.7" fill="rgb(214,203,192)" stroke="white"/>
<rect x="894.7" y="100.7" width="35.3" height="45.7" fill="rgb(218,220,213)" stroke="white"/>
<text x="70" y="173.3" font-family="Arial" font-size="12" text-anchor="end" fill="#334155">Wed</text>
<rect x="82.0" y="146.4" width="35.3" height="45.7" fill="rgb(221,232,229)" stroke="white"/>
<rect x="117.3" y="146.4" width="35.3" height="45.7" fill="rgb(223,238,236)" stroke="white"/>
<rect x="152.7" y="146.4" width="35.3" height="45.7" fill="rgb(223,240,239)" stroke="white"/>
<rect x="188.0" y="146.4" width="35.3" height="45.7" fill="rgb(223,241,240)" stroke="white"/>
<rect x="223.3" y="146.4" width="35.3" height="45.7" fill="rgb(223,241,240)" stroke="white"/>
<rect x="258.7" y="146.4" width="35.3" height="45.7" fill="rgb(222,235,232)" stroke="white"/>
<rect x="294.0" y="146.4" width="35.3" height="45.7" fill="rgb(216,210,201)" stroke="white"/>
<rect x="329.3" y="146.4" width="35.3" height="45.7" fill="rgb(202,152,127)" stroke="white"/>
<rect x="364.7" y="146.4" width="35.3" height="45.7" fill="rgb(189,96,57)" stroke="white"/>
<rect x="400.0" y="146.4" width="35.3" height="45.7" fill="rgb(207,171,152)" stroke="white"/>
<rect x="435.3" y="146.4" width="35.3" height="45.7" fill="rgb(214,203,192)" stroke="white"/>
<rect x="470.7" y="146.4" width="35.3" height="45.7" fill="rgb(213,197,184)" stroke="white"/>
<rect x="506.0" y="146.4" width="35.3" height="45.7" fill="rgb(210,185,168)" stroke="white"/>
<rect x="541.3" y="146.4" width="35.3" height="45.7" fill="rgb(210,187,172)" stroke="white"/>
<rect x="576.7" y="146.4" width="35.3" height="45.7" fill="rgb(211,192,177)" stroke="white"/>
<rect x="612.0" y="146.4" width="35.3" height="45.7" fill="rgb(211,188,173)" stroke="white"/>
<rect x="647.3" y="146.4" width="35.3" height="45.7" fill="rgb(204,161,138)" stroke="white"/>
<rect x="682.7" y="146.4" width="35.3" height="45.7" fill="rgb(187,89,47)" stroke="white"/>
<rect x="718.0" y="146.4" width="35.3" height="45.7" fill="rgb(188,95,55)" stroke="white"/>
<rect x="753.3" y="146.4" width="35.3" height="45.7" fill="rgb(198,136,106)" stroke="white"/>
<rect x="788.7" y="146.4" width="35.3" height="45.7" fill="rgb(205,166,145)" stroke="white"/>
<rect x="824.0" y="146.4" width="35.3" height="45.7" fill="rgb(210,184,168)" stroke="white"/>
<rect x="859.3" y="146.4" width="35.3" height="45.7" fill="rgb(213,200,188)" stroke="white"/>
<rect x="894.7" y="146.4" width="35.3" height="45.7" fill="rgb(218,218,210)" stroke="white"/>
<text x="70" y="219.0" font-family="Arial" font-size="12" text-anchor="end" fill="#334155">Thu</text>
<rect x="82.0" y="192.1" width="35.3" height="45.7" fill="rgb(221,231,227)" stroke="white"/>
<rect x="117.3" y="192.1" width="35.3" height="45.7" fill="rgb(223,238,236)" stroke="white"/>
<rect x="152.7" y="192.1" width="35.3" height="45.7" fill="rgb(223,240,239)" stroke="white"/>
<rect x="188.0" y="192.1" width="35.3" height="45.7" fill="rgb(223,241,240)" stroke="white"/>
<rect x="223.3" y="192.1" width="35.3" height="45.7" fill="rgb(223,241,240)" stroke="white"/>
<rect x="258.7" y="192.1" width="35.3" height="45.7" fill="rgb(222,235,232)" stroke="white"/>
<rect x="294.0" y="192.1" width="35.3" height="45.7" fill="rgb(216,211,201)" stroke="white"/>
<rect x="329.3" y="192.1" width="35.3" height="45.7" fill="rgb(202,151,126)" stroke="white"/>
<rect x="364.7" y="192.1" width="35.3" height="45.7" fill="rgb(189,96,57)" stroke="white"/>
<rect x="400.0" y="192.1" width="35.3" height="45.7" fill="rgb(206,171,151)" stroke="white"/>
<rect x="435.3" y="192.1" width="35.3" height="45.7" fill="rgb(214,203,192)" stroke="white"/>
<rect x="470.7" y="192.1" width="35.3" height="45.7" fill="rgb(212,195,182)" stroke="white"/>
<rect x="506.0" y="192.1" width="35.3" height="45.7" fill="rgb(209,183,166)" stroke="white"/>
<rect x="541.3" y="192.1" width="35.3" height="45.7" fill="rgb(210,184,168)" stroke="white"/>
<rect x="576.7" y="192.1" width="35.3" height="45.7" fill="rgb(211,189,175)" stroke="white"/>
<rect x="612.0" y="192.1" width="35.3" height="45.7" fill="rgb(210,184,168)" stroke="white"/>
<rect x="647.3" y="192.1" width="35.3" height="45.7" fill="rgb(203,157,133)" stroke="white"/>
<rect x="682.7" y="192.1" width="35.3" height="45.7" fill="rgb(186,85,42)" stroke="white"/>
<rect x="718.0" y="192.1" width="35.3" height="45.7" fill="rgb(188,92,52)" stroke="white"/>
<rect x="753.3" y="192.1" width="35.3" height="45.7" fill="rgb(198,135,106)" stroke="white"/>
<rect x="788.7" y="192.1" width="35.3" height="45.7" fill="rgb(204,162,140)" stroke="white"/>
<rect x="824.0" y="192.1" width="35.3" height="45.7" fill="rgb(210,183,167)" stroke="white"/>
<rect x="859.3" y="192.1" width="35.3" height="45.7" fill="rgb(213,199,186)" stroke="white"/>
<rect x="894.7" y="192.1" width="35.3" height="45.7" fill="rgb(217,214,205)" stroke="white"/>
<text x="70" y="264.7" font-family="Arial" font-size="12" text-anchor="end" fill="#334155">Fri</text>
<rect x="82.0" y="237.9" width="35.3" height="45.7" fill="rgb(220,227,222)" stroke="white"/>
<rect x="117.3" y="237.9" width="35.3" height="45.7" fill="rgb(222,235,233)" stroke="white"/>
<rect x="152.7" y="237.9" width="35.3" height="45.7" fill="rgb(223,239,237)" stroke="white"/>
<rect x="188.0" y="237.9" width="35.3" height="45.7" fill="rgb(223,241,240)" stroke="white"/>
<rect x="223.3" y="237.9" width="35.3" height="45.7" fill="rgb(223,241,240)" stroke="white"/>
<rect x="258.7" y="237.9" width="35.3" height="45.7" fill="rgb(222,236,233)" stroke="white"/>
<rect x="294.0" y="237.9" width="35.3" height="45.7" fill="rgb(217,216,208)" stroke="white"/>
<rect x="329.3" y="237.9" width="35.3" height="45.7" fill="rgb(205,166,146)" stroke="white"/>
<rect x="364.7" y="237.9" width="35.3" height="45.7" fill="rgb(190,104,67)" stroke="white"/>
<rect x="400.0" y="237.9" width="35.3" height="45.7" fill="rgb(205,165,144)" stroke="white"/>
<rect x="435.3" y="237.9" width="35.3" height="45.7" fill="rgb(212,195,182)" stroke="white"/>
<rect x="470.7" y="237.9" width="35.3" height="45.7" fill="rgb(210,186,171)" stroke="white"/>
<rect x="506.0" y="237.9" width="35.3" height="45.7" fill="rgb(207,171,152)" stroke="white"/>
<rect x="541.3" y="237.9" width="35.3" height="45.7" fill="rgb(206,170,150)" stroke="white"/>
<rect x="576.7" y="237.9" width="35.3" height="45.7" fill="rgb(207,174,155)" stroke="white"/>
<rect x="612.0" y="237.9" width="35.3" height="45.7" fill="rgb(206,167,146)" stroke="white"/>
<rect x="647.3" y="237.9" width="35.3" height="45.7" fill="rgb(200,143,116)" stroke="white"/>
<rect x="682.7" y="237.9" width="35.3" height="45.7" fill="rgb(188,95,55)" stroke="white"/>
<rect x="718.0" y="237.9" width="35.3" height="45.7" fill="rgb(193,116,82)" stroke="white"/>
<rect x="753.3" y="237.9" width="35.3" height="45.7" fill="rgb(202,152,127)" stroke="white"/>
<rect x="788.7" y="237.9" width="35.3" height="45.7" fill="rgb(208,179,161)" stroke="white"/>
<rect x="824.0" y="237.9" width="35.3" height="45.7" fill="rgb(212,192,178)" stroke="white"/>
<rect x="859.3" y="237.9" width="35.3" height="45.7" fill="rgb(213,199,186)" stroke="white"/>
<rect x="894.7" y="237.9" width="35.3" height="45.7" fill="rgb(215,208,198)" stroke="white"/>
<text x="70" y="310.4" font-family="Arial" font-size="12" text-anchor="end" fill="#334155">Sat</text>
<rect x="82.0" y="283.6" width="35.3" height="45.7" fill="rgb(217,214,206)" stroke="white"/>
<rect x="117.3" y="283.6" width="35.3" height="45.7" fill="rgb(219,222,216)" stroke="white"/>
<rect x="152.7" y="283.6" width="35.3" height="45.7" fill="rgb(220,228,223)" stroke="white"/>
<rect x="188.0" y="283.6" width="35.3" height="45.7" fill="rgb(222,236,233)" stroke="white"/>
<rect x="223.3" y="283.6" width="35.3" height="45.7" fill="rgb(223,240,239)" stroke="white"/>
<rect x="258.7" y="283.6" width="35.3" height="45.7" fill="rgb(223,240,239)" stroke="white"/>
<rect x="294.0" y="283.6" width="35.3" height="45.7" fill="rgb(222,236,234)" stroke="white"/>
<rect x="329.3" y="283.6" width="35.3" height="45.7" fill="rgb(220,229,225)" stroke="white"/>
<rect x="364.7" y="283.6" width="35.3" height="45.7" fill="rgb(216,208,199)" stroke="white"/>
<rect x="400.0" y="283.6" width="35.3" height="45.7" fill="rgb(210,187,171)" stroke="white"/>
<rect x="435.3" y="283.6" width="35.3" height="45.7" fill="rgb(205,164,142)" stroke="white"/>
<rect x="470.7" y="283.6" width="35.3" height="45.7" fill="rgb(200,144,117)" stroke="white"/>
<rect x="506.0" y="283.6" width="35.3" height="45.7" fill="rgb(197,130,100)" stroke="white"/>
<rect x="541.3" y="283.6" width="35.3" height="45.7" fill="rgb(196,127,96)" stroke="white"/>
<rect x="576.7" y="283.6" width="35.3" height="45.7" fill="rgb(196,128,97)" stroke="white"/>
<rect x="612.0" y="283.6" width="35.3" height="45.7" fill="rgb(196,128,97)" stroke="white"/>
<rect x="647.3" y="283.6" width="35.3" height="45.7" fill="rgb(197,133,103)" stroke="white"/>
<rect x="682.7" y="283.6" width="35.3" height="45.7" fill="rgb(200,142,115)" stroke="white"/>
<rect x="718.0" y="283.6" width="35.3" height="45.7" fill="rgb(203,155,131)" stroke="white"/>
<rect x="753.3" y="283.6" width="35.3" height="45.7" fill="rgb(206,171,151)" stroke="white"/>
<rect x="788.7" y="283.6" width="35.3" height="45.7" fill="rgb(211,188,173)" stroke="white"/>
<rect x="824.0" y="283.6" width="35.3" height="45.7" fill="rgb(213,196,183)" stroke="white"/>
<rect x="859.3" y="283.6" width="35.3" height="45.7" fill="rgb(214,201,189)" stroke="white"/>
<rect x="894.7" y="283.6" width="35.3" height="45.7" fill="rgb(215,208,198)" stroke="white"/>
<text x="70" y="356.1" font-family="Arial" font-size="12" text-anchor="end" fill="#334155">Sun</text>
<rect x="82.0" y="329.3" width="35.3" height="45.7" fill="rgb(217,215,206)" stroke="white"/>
<rect x="117.3" y="329.3" width="35.3" height="45.7" fill="rgb(218,220,213)" stroke="white"/>
<rect x="152.7" y="329.3" width="35.3" height="45.7" fill="rgb(219,224,219)" stroke="white"/>
<rect x="188.0" y="329.3" width="35.3" height="45.7" fill="rgb(222,233,230)" stroke="white"/>
<rect x="223.3" y="329.3" width="35.3" height="45.7" fill="rgb(223,240,239)" stroke="white"/>
<rect x="258.7" y="329.3" width="35.3" height="45.7" fill="rgb(223,240,239)" stroke="white"/>
<rect x="294.0" y="329.3" width="35.3" height="45.7" fill="rgb(223,238,237)" stroke="white"/>
<rect x="329.3" y="329.3" width="35.3" height="45.7" fill="rgb(221,233,230)" stroke="white"/>
<rect x="364.7" y="329.3" width="35.3" height="45.7" fill="rgb(218,218,210)" stroke="white"/>
<rect x="400.0" y="329.3" width="35.3" height="45.7" fill="rgb(212,196,183)" stroke="white"/>
<rect x="435.3" y="329.3" width="35.3" height="45.7" fill="rgb(205,165,144)" stroke="white"/>
<rect x="470.7" y="329.3" width="35.3" height="45.7" fill="rgb(201,148,122)" stroke="white"/>
<rect x="506.0" y="329.3" width="35.3" height="45.7" fill="rgb(197,131,101)" stroke="white"/>
<rect x="541.3" y="329.3" width="35.3" height="45.7" fill="rgb(197,130,100)" stroke="white"/>
<rect x="576.7" y="329.3" width="35.3" height="45.7" fill="rgb(198,134,104)" stroke="white"/>
<rect x="612.0" y="329.3" width="35.3" height="45.7" fill="rgb(198,137,108)" stroke="white"/>
<rect x="647.3" y="329.3" width="35.3" height="45.7" fill="rgb(198,136,107)" stroke="white"/>
<rect x="682.7" y="329.3" width="35.3" height="45.7" fill="rgb(201,147,121)" stroke="white"/>
<rect x="718.0" y="329.3" width="35.3" height="45.7" fill="rgb(204,161,139)" stroke="white"/>
<rect x="753.3" y="329.3" width="35.3" height="45.7" fill="rgb(208,175,156)" stroke="white"/>
<rect x="788.7" y="329.3" width="35.3" height="45.7" fill="rgb(212,192,178)" stroke="white"/>
<rect x="824.0" y="329.3" width="35.3" height="45.7" fill="rgb(215,204,194)" stroke="white"/>
<rect x="859.3" y="329.3" width="35.3" height="45.7" fill="rgb(217,215,206)" stroke="white"/>
<rect x="894.7" y="329.3" width="35.3" height="45.7" fill="rgb(219,224,219)" stroke="white"/>
<text x="99.7" y="400" font-family="Arial" font-size="10" text-anchor="middle" fill="#475569">0</text>
<text x="170.3" y="400" font-family="Arial" font-size="10" text-anchor="middle" fill="#475569">2</text>
<text x="241.0" y="400" font-family="Arial" font-size="10" text-anchor="middle" fill="#475569">4</text>
<text x="311.7" y="400" font-family="Arial" font-size="10" text-anchor="middle" fill="#475569">6</text>
<text x="382.3" y="400" font-family="Arial" font-size="10" text-anchor="middle" fill="#475569">8</text>
<text x="453.0" y="400" font-family="Arial" font-size="10" text-anchor="middle" fill="#475569">10</text>
<text x="523.7" y="400" font-family="Arial" font-size="10" text-anchor="middle" fill="#475569">12</text>
<text x="594.3" y="400" font-family="Arial" font-size="10" text-anchor="middle" fill="#475569">14</text>
<text x="665.0" y="400" font-family="Arial" font-size="10" text-anchor="middle" fill="#475569">16</text>
<text x="735.7" y="400" font-family="Arial" font-size="10" text-anchor="middle" fill="#475569">18</text>
<text x="806.3" y="400" font-family="Arial" font-size="10" text-anchor="middle" fill="#475569">20</text>
<text x="877.0" y="400" font-family="Arial" font-size="10" text-anchor="middle" fill="#475569">22</text>
</svg>